PathFileType	4	(X/Y/Z)	/Users/niels/Desktop/University/Third Semester/Perception and Action/Exam/Gymnastics Motion Tracking/Code for Gym Tracking/Analyzed Data/Webcam_Backflip/id6_5_baseline_Sports2D/id6_5_baseline_Sports2D_px_person00.trc
DataRate	CameraRate	NumFrames	NumMarkers	Units	OrigDataRate	OrigDataStartFrame	OrigNumFrames
29.8125	29.8125	12	22	m	29.8125	100	160
Frame#	Time	Hip			RHip			RKnee			RAnkle			RBigToe			RSmallToe			RHeel			LHip			LKnee			LAnkle			LBigToe			LSmallToe			LHeel			Neck			Head			Nose			RShoulder			RElbow			RWrist			LShoulder			LElbow			LWrist		
		X1	Y1	Z1	X2	Y2	Z2	X3	Y3	Z3	X4	Y4	Z4	X5	Y5	Z5	X6	Y6	Z6	X7	Y7	Z7	X8	Y8	Z8	X9	Y9	Z9	X10	Y10	Z10	X11	Y11	Z11	X12	Y12	Z12	X13	Y13	Z13	X14	Y14	Z14	X15	Y15	Z15	X16	Y16	Z16	X17	Y17	Z17	X18	Y18	Z18	X19	Y19	Z19	X20	Y20	Z20	X21	Y21	Z21	X22	Y22	Z22
100	3.354297693920335	0.8456412673686527	-0.4706948593799159	0.0	0.8472554943884362	-0.4701067081181967	0.0	0.9130345986262897	-0.5472410523746274	0.0	0.882021340550594	-0.6309314507031816	0.0	0.9042707108872275	-0.6771862033256921	0.0	0.8969151974960288	-0.6734990576212132	0.0	0.8698858151904583	-0.639619287420061	0.0	0.8441044262732281	-0.46917822878512333	0.0	0.8779423510214689	-0.5657223967133487	0.0	0.8921267187870431	-0.6690051848736286	0.0	0.9207020742584617	-0.699793770931217	0.0	0.9166573490022806	-0.6959581600322189	0.0	0.8860794119894825	-0.6857015784269267	0.0	0.9279167802725021	-0.3737074849769144	0.0	0.9856952993600345	-0.3438101420548379	0.0	0.9675029294756207	-0.3733100054739753	0.0	0.9156670477235452	-0.38220866522819413	0.0	0.9018055627717367	-0.4476307788670531	0.0	0.9082595682984594	-0.507691478190191	0.0	0.9092627297240438	-0.3728848535774957	0.0	0.8836095344198508	-0.4317282794799709	0.0	0.8819655367068407	-0.4893450450955762	0.0
101	3.3878406708595383	0.8509182071339196	-0.4974746279689622	0.0	0.8520243780468957	-0.49690034822848156	0.0	0.910343343081654	-0.5778671752386051	0.0	0.892258890922271	-0.6692572253825361	0.0	0.9207195214766752	-0.7075086262587172	0.0	0.9132920874353039	-0.70688306956904	0.0	0.8823219475986096	-0.6816633572349198	0.0	0.8500923841471012	-0.49598922252026273	0.0	0.8825918253549235	-0.5914422565562296	0.0	0.8923536434221486	-0.6944025775107227	0.0	0.9228452771627113	-0.7205018917135023	0.0	0.919669483476512	-0.7174462422391449	0.0	0.8856096274951047	-0.7110978556428726	0.0	0.9321931856968445	-0.3981550377262581	0.0	0.9856779095301066	-0.36558721771250996	0.0	0.9699492648926605	-0.3952047688439701	0.0	0.9189674478298819	-0.40799146317468316	0.0	0.8959794576764988	-0.4711236706980697	0.0	0.8941774031712555	-0.5309804142789435	0.0	0.9137153655903902	-0.39866113734009595	0.0	0.8813906953962996	-0.4562293476261432	0.0	0.8763403629273303	-0.5122412047457803	0.0
102	3.421383647798742	0.8567737849000321	-0.5279799702261504	0.0	0.8576919347175816	-0.5274148126734975	0.0	0.9085185925919285	-0.6119249669764798	0.0	0.8997810259821584	-0.7090696146019265	0.0	0.9317716612181541	-0.7384475562151332	0.0	0.9245089072497166	-0.740044766499108	0.0	0.8916934985505226	-0.7236271788933469	0.0	0.856407418724742	-0.5264116267568597	0.0	0.8865380733694209	-0.6210746416986455	0.0	0.8897622469945916	-0.7228267939261674	0.0	0.9223519083148031	-0.7443067942328483	0.0	0.9200737130125433	-0.7414499461244416	0.0	0.8825568784947103	-0.738713150895886	0.0	0.9352875540997135	-0.42470945071861965	0.0	0.9840909276484427	-0.38793635832203366	0.0	0.9716127562497137	-0.4180189728527173	0.0	0.9214749625138795	-0.4359952223150845	0.0	0.8908266663443238	-0.4969869975687303	0.0	0.8811027057065396	-0.555738737089427	0.0	0.9172827135116982	-0.42693846484274395	0.0	0.8807734338355249	-0.4833272238495401	0.0	0.8713735912979762	-0.5378756324114689	0.0
103	3.454926624737945	0.8629210082934826	-0.5607488360793957	0.0	0.8640791729352513	-0.5602129440145192	0.0	0.9088486665454028	-0.6472631686352165	0.0	0.904454762424567	-0.7473515616794777	0.0	0.9373365093793566	-0.7684961932052933	0.0	0.9303255555105138	-0.7714152033660835	0.0	0.8975335754246913	-0.7623071801718383	0.0	0.8626290186126422	-0.5590227502378033	0.0	0.8893583083109953	-0.6531593947002554	0.0	0.8847954003227665	-0.7527493076706504	0.0	0.9197794513042039	-0.7702256311428097	0.0	0.9181825793982423	-0.7668945178271213	0.0	0.8773405311025548	-0.7672589021379352	0.0	0.9369082625340054	-0.45212254423841125	0.0	0.9810213240958354	-0.4101922223793163	0.0	0.9723467450404364	-0.44100643436688713	0.0	0.923063135333498	-0.4648578408607845	0.0	0.8870118556694973	-0.5241162841957674	0.0	0.8704554547568443	-0.5814511796421793	0.0	0.9196230829534138	-0.4564956831361506	0.0	0.8816174965462447	-0.5120276230124009	0.0	0.8676717894097864	-0.5652057964349239	0.0
104	3.4884696016771484	0.8689365249155432	-0.5930927007954434	0.0	0.870595026834159	-0.5926459229567985	0.0	0.9113779186992762	-0.681131801433933	0.0	0.906538722398755	-0.7814498089047658	0.0	0.93834090522509	-0.7959377008031681	0.0	0.9317372749418328	-0.79945265817913	0.0	0.9000746516816973	-0.7953479399099299	0.0	0.8684318610070191	-0.5912683433546286	0.0	0.891489913201355	-0.6848483823933111	0.0	0.8790394489502689	-0.7814815266730606	0.0	0.9161874774876742	-0.7959964209128741	0.0	0.9150569702998327	-0.7916680909074821	0.0	0.8714946019261564	-0.7942653262156036	0.0	0.9372217045408476	-0.47863307067212474	0.0	0.9768395360671721	-0.43146172846497943	0.0	0.972297511812292	-0.46313494300345925	0.0	0.9238955795225441	-0.49270588774316754	0.0	0.8850869444177826	-0.5506187425162747	0.0	0.8636877428237245	-0.606971913012904	0.0	0.9208005338470008	-0.4854466373189833	0.0	0.8835131608409388	-0.5405022311996593	0.0	0.8660410232439995	-0.5925764960552289	0.0
105	3.522012578616352	0.8741943545196639	-0.6214838200733087	0.0	0.8764237612821181	-0.6212192865656889	0.0	0.9152924454360492	-0.710379805947169	0.0	0.9066741848555218	-0.8090546598033297	0.0	0.9362883147301059	-0.8188722775026553	0.0	0.9303737935258256	-0.822483257268855	0.0	0.900169342189381	-0.820989458689644	0.0	0.8733545715947835	-0.619739283514248	0.0	0.8936343529746482	-0.7126177564799253	0.0	0.8741173301096814	-0.8059540197284334	0.0	0.9124947163435386	-0.8187349388510522	0.0	0.9116327218631829	-0.8132156828306207	0.0	0.8666123585263905	-0.8169051665184451	0.0	0.9368084994765903	-0.5020710931931303	0.0	0.9722934800895965	-0.45045202354732733	0.0	0.9719170723387676	-0.48288250267929	0.0	0.9243713579356262	-0.5171889048268399	0.0	0.8854102238633846	-0.574138942921798	0.0	0.8619473633407638	-0.6304908150566298	0.0	0.9212319450810589	-0.5112692672016733	0.0	0.8861198367899593	-0.5662338015248543	0.0	0.8674206738215806	-0.6177858075582996	0.0
106	3.555555555555555	0.8781396401614876	-0.6424787028969402	0.0	0.8809318527167544	-0.6424398539979247	0.0	0.919572989806419	-0.7320378133412145	0.0	0.9058162199786061	-0.8283484491110645	0.0	0.9328817243839332	-0.8356363979192122	0.0	0.9279298636691338	-0.839003041240293	0.0	0.8990597346740936	-0.8381381614131193	0.0	0.8769319041455109	-0.6409719288513605	0.0	0.8961726304361937	-0.7332255135413434	0.0	0.8708536963437952	-0.8235726910527619	0.0	0.909351352942704	-0.8358551488450239	0.0	0.9084171420647084	-0.829330056733923	0.0	0.8634438768177635	-0.8329253661077163	0.0	0.9363760429779427	-0.5200555797580507	0.0	0.9684921435034953	-0.46539592959520604	0.0	0.9717687221919424	-0.4982884506831092	0.0	0.9249938554904351	-0.535677379899908	0.0	0.8879476015716963	-0.592268553319576	0.0	0.8657048757792103	-0.6496925020140747	0.0	0.9214554134806493	-0.5311324483207076	0.0	0.8892648077221667	-0.5864684916605606	0.0	0.8723138717538752	-0.6381898340677953	0.0
107	3.5890985324947584	0.8806682026857672	-0.6536219442078008	0.0	0.8839396348723584	-0.6537404816255082	0.0	0.9232560898730003	-0.7439932803041333	0.0	0.9048392240273564	-0.8382881578117205	0.0	0.9294604499048769	-0.8450484425956473	0.0	0.9255482511536373	-0.8479204621135978	0.0	0.8978393764664742	-0.8464377545964817	0.0	0.879097188883121	-0.652378008624718	0.0	0.899175464139634	-0.7444483530345716	0.0	0.8693871339174462	-0.8326056467537472	0.0	0.907042025835453	-0.8455645951837165	0.0	0.9054296693835842	-0.838501732493392	0.0	0.8619919593281793	-0.8409472155631257	0.0	0.9364419479887046	-0.5303883125691556	0.0	0.9665193491986979	-0.4742694686494387	0.0	0.9722568442692969	-0.5073427075200405	0.0	0.9261798970501668	-0.5458418442905429	0.0	0.8922528095371622	-0.6028522635057647	0.0	0.8745793545487961	-0.6620434672515846	0.0	0.9219251228522158	-0.5425379532520486	0.0	0.8928383564570891	-0.5986857634840386	0.0	0.8803687248035769	-0.6510676664239914	0.0
108	3.622641509433962	0.882226709011507	-0.6539629096908954	0.0	0.8857667388102372	-0.6541140254208471	0.0	0.925673697891146	-0.7454099013823798	0.0	0.9042605782490598	-0.8387352161790811	0.0	0.9267255100259475	-0.8464441873703875	0.0	0.9236388175558379	-0.8486982590920555	0.0	0.897113505461035	-0.8461314032029347	0.0	0.8803219760834688	-0.6528673892788132	0.0	0.9024900950440111	-0.7454349012468666	0.0	0.8694866522920038	-0.8322658829210339	0.0	0.9053320854240395	-0.8469138734112583	0.0	0.9020679756446454	-0.8398712304882586	0.0	0.8618861530152387	-0.8403810369087323	0.0	0.9372446646559708	-0.5316065813595816	0.0	0.9668942159761683	-0.47542140864281673	0.0	0.9735159961654811	-0.5085612798264801	0.0	0.9281003014769894	-0.5463287654044036	0.0	0.8976917015886099	-0.604352096232957	0.0	0.8874478902522266	-0.665298460777963	0.0	0.9229427540096725	-0.5439767856111057	0.0	0.8967074593015891	-0.6011816269907048	0.0	0.89045782436326	-0.654324752951852	0.0
109	3.656184486373165	0.883559908144627	-0.644120480840876	0.0	0.8870660069012329	-0.6442253982992273	0.0	0.9267392949810923	-0.7368364273397474	0.0	0.9043055915669913	-0.8304097285085481	0.0	0.925008513310121	-0.8399408095390045	0.0	0.9223376724329846	-0.8416319740268536	0.0	0.8970655202808789	-0.8379770969831984	0.0	0.8813858299852891	-0.64298784609266	0.0	0.9058214284126717	-0.7366910005224783	0.0	0.8707487179780244	-0.8228308998474687	0.0	0.9038865465582093	-0.8398658120476491	0.0	0.8978480071374445	-0.8332898817694987	0.0	0.8626629756070693	-0.8314540759438118	0.0	0.9388255215048855	-0.5234527167796099	0.0	0.9694271705176727	-0.4682705811357619	0.0	0.9754520907885663	-0.501464371263142	0.0	0.930655094377505	-0.5370973719580083	0.0	0.9036310608309129	-0.596301465523727	0.0	0.9027120834147565	-0.6582068206369144	0.0	0.9246343154435522	-0.5353164605406433	0.0	0.9007297840445674	-0.5936683722736615	0.0	0.901229417423123	-0.6472690398547152	0.0
110	3.6897274633123684	0.8853005514308164	-0.6259696664065724	0.0	0.888496063704223	-0.6260423185209145	0.0	0.9269330286754194	-0.7200666647870949	0.0	0.9050836177557007	-0.81484366931385	0.0	0.9246793089459863	-0.8268477698163558	0.0	0.9219689811946716	-0.8281477348224967	0.0	0.8977186257723281	-0.8233325399740253	0.0	0.8829481339861045	-0.6246434995459037	0.0	0.9089513776732735	-0.7198674830980358	0.0	0.8727810527736559	-0.8057780447411249	0.0	0.9029096313096856	-0.8255410210045665	0.0	0.893552671467329	-0.8196524967369792	0.0	0.8639965506523183	-0.8153791979907968	0.0	0.9410642114339554	-0.5070324802972478	0.0	0.973568626129845	-0.45358605670952584	0.0	0.9778122393043818	-0.4867875180994819	0.0	0.9335632236918553	-0.5194028726067456	0.0	0.9094569019026455	-0.5795564283825996	0.0	0.9186186162031772	-0.6410919925874325	0.0	0.9269379680346259	-0.5178735600974348	0.0	0.9047646620402564	-0.5774586922238699	0.0	0.9116828622230059	-0.6310020520088564	0.0
111	3.723270440251572	0.887746092715673	-0.6021206399675645	0.0	0.8904929188825932	-0.602261580756421	0.0	0.9269630873976021	-0.6977324984596861	0.0	0.9066673453329468	-0.7942130174161881	0.0	0.9261145623980489	-0.8094849864354118	0.0	0.9229455196411772	-0.8105666820989732	0.0	0.8991375955237079	-0.8041085173411985	0.0	0.8852445868303993	-0.6005664883981444	0.0	0.9117919222190752	-0.6974254268324245	0.0	0.8753087855383777	-0.7835560473118358	0.0	0.9031218740977435	-0.8061303341012354	0.0	0.8909780059932894	-0.8009395929293762	0.0	0.8657715780845966	-0.7942509416918964	0.0	0.9436768640466234	-0.4845473008913457	0.0	0.9787716861197427	-0.4332224768310137	0.0	0.9802803721590388	-0.46634147942620124	0.0	0.9364820127099164	-0.4955365367930402	0.0	0.9145987964718277	-0.5561294818237282	0.0	0.933615334091343	-0.6159193366640616	0.0	0.9296613594959036	-0.494111747781464	0.0	0.9086819603905442	-0.5550282417796469	0.0	0.921305205571622	-0.6080827025996188	0.0
